# xmcd
#
# Track frame offsets:
#	150
#	12852
#	22394
#	38816
#	51052
#	62200
#	70575
#	82573
#	88438
#	99776
#	115012
#	128377
#	135895
#	142843
#
# Disc length: 2083 seconds
#
# Revision: 2
# Processed by: cddbd v1.5.2PL0 Copyright (c) Steve Scherf et al.
# Submitted via: EasyCDDAExtractor 12.0.1.1
#
DISCID=a408210e
DTITLE=Dancelife - Master Of Modern Four
DYEAR=1900
DGENRE=Dance
TTITLE0=EW 29 - Gymnopedie
TTITLE1=EW 29 - Oh, Mio Babbino Caro
TTITLE2=EW 29 - Close Every Door
TTITLE3=TG 32 - Tango Delle Papinere
TTITLE4=TG 33 - Hotel Victoria
TTITLE5=WW 60 - Carousel
TTITLE6=WW 60 - Hennesey Waltz
TTITLE7=WW 60 - Wien, Wien
TTITLE8=SF 29 - Just In Time
TTITLE9=SF 29 - The Maddest Kind of Love
TTITLE10=SF 29 - Baby, It's Cold Outside
TTITLE11=QS 50 - Vicky and The Valves
TTITLE12=QS 50 - Back on the Corner
TTITLE13=QS 50 - Brown Derby Jump
EXTD=ID3G: 125
EXTT0=
EXTT1=
EXTT2=
EXTT3=
EXTT4=
EXTT5=
EXTT6=
EXTT7=
EXTT8=
EXTT9=
EXTT10=
EXTT11=
EXTT12=
EXTT13=
PLAYORDER=
